<svg width="13" height="13" viewBox="0 0 13 13" fill="none" xmlns="http://www.w3.org/2000/svg">
<path d="M12.2338 10.0278C12.1949 9.73501 12.0251 9.48258 11.7679 9.33525L8.74774 7.60468C8.37784 7.39272 7.90857 7.45443 7.60665 7.75488L7.01176 8.34691C6.85346 8.50448 6.60301 8.51842 6.42933 8.3793C5.96035 8.00375 5.49859 7.59044 5.0569 7.15084C4.61521 6.71127 4.19991 6.25176 3.82252 5.78501C3.68273 5.61212 3.69672 5.36291 3.85507 5.20534L4.44993 4.61331C4.75183 4.31288 4.81391 3.84592 4.60088 3.47771L2.86196 0.472001C2.71389 0.216074 2.46028 0.0470873 2.1661 0.00835353C1.87189 -0.0304592 1.58282 0.067191 1.37299 0.276017L0.476624 1.1681C-0.148987 1.79074 -0.159034 2.92965 0.448333 4.37509C1.03235 5.76493 2.12223 7.29491 3.51716 8.6832C4.91214 10.0715 6.4495 11.1561 7.84607 11.7373C8.56099 12.0349 9.20123 12.1835 9.74178 12.1835C10.2994 12.1835 10.7508 12.0253 11.0685 11.7091L11.9649 10.8171C12.1747 10.6082 12.2727 10.3205 12.2338 10.0278ZM8.54986 7.94673L11.5701 9.6773C11.7194 9.76288 11.8181 9.9095 11.8406 10.0795C11.8596 10.2222 11.8224 10.3628 11.7379 10.476L7.7241 8.19621L7.8871 8.03399C8.06243 7.8595 8.33503 7.82363 8.54986 7.94673ZM2.11406 0.399665C2.28495 0.422163 2.43225 0.520313 2.51823 0.66896L4.25715 3.67467C4.38089 3.88852 4.34483 4.15976 4.1695 4.33422L4.01977 4.48324L1.71642 0.501894C1.81058 0.432504 1.92319 0.394823 2.04059 0.394823C2.06494 0.394823 2.0895 0.396428 2.11406 0.399665ZM10.788 11.43C10.291 11.9247 9.27447 11.9039 7.99908 11.3731C6.64902 10.8113 5.15695 9.75685 3.79764 8.40409C2.43833 7.0513 1.3788 5.56636 0.814244 4.22281C0.280858 2.95352 0.260049 1.94186 0.757079 1.44719L1.42251 0.784924L3.72932 4.77229L3.57462 4.92626C3.2728 5.22665 3.24651 5.7022 3.51351 6.03249C3.89978 6.51024 4.32471 6.98041 4.77642 7.42995C5.22818 7.87952 5.70062 8.30241 6.18065 8.68683C6.51248 8.95255 6.99032 8.92642 7.29222 8.62599L7.43336 8.48553L11.4527 10.7685L10.788 11.43Z" fill="white"/>
</svg>
